Coordinates
version=1
nRows=32
nColumns=22
inDegrees=yes

Units are S.I. units (second, meters, Newtons, ...)
If the header above contains a line with 'inDegrees', this indicates whether rotational values are in degrees (yes) or radians (no).

endheader
time	pelvis_tilt	pelvis_list	pelvis_rotation	pelvis_tx	pelvis_ty	pelvis_tz	hip_flexion_r	hip_adduction_r	hip_rotation_r	knee_angle_r	ankle_angle_r	subtalar_angle_r	hip_flexion_l	hip_adduction_l	hip_rotation_l	knee_angle_l	ankle_angle_l	subtalar_angle_l	lumbar_extension	lumbar_bending	lumbar_rotation
      3.85000000	     -0.57652686	     -1.02816256	     24.60099671	     -0.22986742	      0.98576144	     -0.93531179	     25.95415571	     -3.48397094	    -33.88015284	    -25.33246679	      4.83832839	     -5.24436797	    -14.89009797	     -9.73167824	    -14.23315034	    -26.99273530	     -5.80769753	     17.38535556	     -3.02890901	      2.73855345	     -9.25097883
      3.86000000	     -0.49366222	     -1.20300809	     23.92220917	     -0.21787447	      0.98699821	     -0.93426336	     25.58368493	     -2.71239461	    -33.08624365	    -25.64532558	      5.10853535	     -5.52772206	    -14.05837742	    -10.31798090	    -14.26900224	    -29.29771184	     -7.58849997	     17.19883873	     -2.96395516	      2.90268701	     -9.20352822
      3.87000000	     -0.38880150	     -1.34876808	     23.27608463	     -0.20610820	      0.98821680	     -0.93317401	     25.12924497	     -1.96914009	    -32.38322260	    -25.88166131	      5.43281814	     -5.82837356	    -13.13834881	    -10.89010044	    -14.17701364	    -31.74704696	     -9.15902676	     16.94465805	     -2.95093231	      3.04830453	     -9.17323278
      3.88000000	     -0.26563156	     -1.46278754	     22.66613685	     -0.19459072	      0.98942891	     -0.93206270	     24.58624213	     -1.25813630	    -31.76759487	    -26.01796966	      5.78638775	     -6.13298231	    -12.13255683	    -11.42372577	    -13.92670731	    -34.30305088	    -10.47404563	     16.63476048	     -2.98725508	      3.16545578	     -9.14056300
      3.89000000	     -0.13236241	     -1.55184964	     22.08626734	     -0.18335043	      0.99061497	     -0.93091751	     23.98734194	     -0.58507544	    -31.23072975	    -26.09194393	      6.14776539	     -6.42058723	    -11.03739533	    -11.90244022	    -13.51002680	    -36.92180808	    -11.53072921	     16.28139967	     -3.06681050	      3.25892323	     -9.11452957
      3.90000000	     -0.00259770	     -1.61129325	     21.53848833	     -0.17241178	      0.99177306	     -0.92980060	     23.34799097	      0.03316203	    -30.76392840	    -26.10767507	      6.51871104	     -6.69658957	     -9.85371942	    -12.28499829	    -12.89988667	    -39.54290035	    -12.28622308	     15.83327205	     -3.17343664	      3.32280084	     -9.08293800
      3.91000000	      0.11243470	     -1.63864779	     21.00898649	     -0.16178072	      0.99290264	     -0.92870709	     22.68815132	      0.59178523	    -30.34328567	    -26.07628556	      6.89262238	     -6.95199867	     -8.58880852	    -12.54344924	    -12.11590158	    -42.10865312	    -12.71334834	     15.29271970	     -3.29615661	      3.34994840	     -9.03723338
      3.92000000	      0.20757456	     -1.63817335	     20.48238591	     -0.15144819	      0.99400666	     -0.92761905	     22.02279782	      1.09662485	    -29.94595688	    -26.00834664	      7.25931705	     -7.16919822	     -7.25404825	    -12.67376525	    -11.21116654	    -44.57360423	    -12.78833485	     14.72543520	     -3.42585821	      3.34250493	     -8.97037746
      3.93000000	      0.27914156	     -1.61982275	     19.94486277	     -0.14138207	      0.99508709	     -0.92651978	     21.35929676	      1.56169772	    -29.55395705	    -25.90309796	      7.62076156	     -7.33859310	     -5.86006821	    -12.69138336	    -10.24883335	    -46.90526016	    -12.49819478	     14.20569121	     -3.54807643	      3.31041409	     -8.87541896
      3.94000000	      0.33025731	     -1.58553938	     19.37707763	     -0.13155199	      0.99615366	     -0.92535703	     20.69646522	      2.00141395	    -29.14068354	    -25.75721732	      7.97588770	     -7.45781524	     -4.43076609	    -12.61462321	     -9.29818091	    -49.07544418	    -11.86716606	     13.78444636	     -3.66248941	      3.25196384	     -8.73882151
      3.95000000	      0.36751676	     -1.53964034	     18.76201078	     -0.12191368	      0.99721779	     -0.92407018	     20.02628724	      2.43269601	    -28.69104690	    -25.56559792	      8.31601598	     -7.52690771	     -2.98900831	    -12.47149214	     -8.41496864	    -51.06294809	    -10.97105902	     13.49867062	     -3.77190371	      3.16971929	     -8.55274114
      3.96000000	      0.39119014	     -1.49013474	     18.09058085	     -0.11242804	      0.99827407	     -0.92260480	     19.34782313	      2.87033877	    -28.20477778	    -25.32284346	      8.64113881	     -7.55289154	     -1.54498955	    -12.29552415	     -7.64123969	    -52.85515867	     -9.89431413	     13.34788679	     -3.86764711	      3.06519228	     -8.31263711
      3.97000000	      0.41189602	     -1.43566951	     17.35473491	     -0.10306798	      0.99934147	     -0.92093563	     18.64438568	      3.32054765	    -27.67366400	    -25.02139442	      8.95361977	     -7.54183145	     -0.12220977	    -12.10512512	     -6.99230963	    -54.43940945	     -8.71274327	     13.31601516	     -3.96110225	      2.94002626	     -8.01301967
      3.98000000	      0.44088847	     -1.37769170	     16.55074486	     -0.09380113	      1.00043289	     -0.91903245	     17.89938411	      3.79143072	    -27.09469078	    -24.65315675	      9.24667435	     -7.49987113	      1.25941112	    -11.92591224	     -6.48694669	    -55.80740622	     -7.49106062	     13.35206176	     -4.05807723	      2.79713037	     -7.65581527
      3.99000000	      0.47664038	     -1.31953972	     15.68471095	     -0.08463280	      1.00153896	     -0.91688254	     17.11869743	      4.27976066	    -26.47475701	    -24.22681013	      9.52177718	     -7.41793244	      2.59932978	    -11.76382544	     -6.09628400	    -56.95317868	     -6.25759156	     13.42777439	     -4.15962632	      2.63645177	     -7.24956582
      4.00000000	      0.52678504	     -1.25944647	     14.75579177	     -0.07552236	      1.00267849	     -0.91449083	     16.28306082	      4.78589008	    -25.80669898	    -23.72854925	      9.77720268	     -7.30463142	      3.87924537	    -11.62784462	     -5.82092701	    -57.86568744	     -5.03842473	     13.47273663	     -4.26605437	      2.45907570	     -6.79004456
      4.01000000	      0.58716401	     -1.20378125	     13.77322838	     -0.06649287	      1.00382463	     -0.91187188	     15.40667059	      5.30481191	    -25.09090826	    -23.17546502	     10.01480778	     -7.14493794	      5.10696859	    -11.52334745	     -5.63489890	    -58.55064624	     -3.83143625	     13.48180403	     -4.37396060	      2.27278408	     -6.28906734
      4.02000000	      0.65777570	     -1.15328539	     12.74298413	     -0.05753570	      1.00496805	     -0.90904392	     14.48613110	      5.83266146	    -24.31995596	    -22.56664569	     10.23576289	     -6.93627466	      6.27878756	    -11.44992076	     -5.51990134	    -59.00540169	     -2.64642359	     13.43551942	     -4.48155982	      2.08092063	     -5.75602906
      4.03000000	      0.73686950	     -1.11139368	     11.67249367	     -0.04865080	      1.00609216	     -0.90603267	     13.52464189	      6.36475407	    -23.49996501	    -21.90704202	     10.44168315	     -6.68282825	      7.39266910	    -11.40832593	     -5.45899830	    -59.22968888	     -1.49179947	     13.31955935	     -4.58531906	      1.88838154	     -5.19534616
      4.04000000	      0.82419195	     -1.08088686	     10.57785024	     -0.03985588	      1.00718429	     -0.90288206	     12.52590240	      6.89542566	    -22.63631517	    -21.20276341	     10.63011707	     -6.38144315	      8.45184201	    -11.39253417	     -5.42136073	    -59.23071886	     -0.39198496	     13.12562467	     -4.68889496	      1.70465997	     -4.62486483
      4.05000000	      0.91380568	     -1.06788308	      9.46578158	     -0.03114093	      1.00821459	     -0.89962692	     11.49932375	      7.42293706	    -21.73945404	    -20.46267553	     10.80114663	     -6.04554446	      9.46101380	    -11.40707192	     -5.40300860	    -59.01586774	      0.64147040	     12.85260422	     -4.77800859	      1.53760680	     -4.05301429
      4.06000000	      0.99812559	     -1.07426383	      8.35338213	     -0.02253472	      1.00916159	     -0.89630831	     10.45985840	      7.93933404	    -20.82966483	    -19.69687444	     10.95403583	     -5.68229189	     10.43329037	    -11.44355055	     -5.37783390	    -58.59525217	      1.58131741	     12.51198203	     -4.85367061	      1.39100203	     -3.49097227
      4.07000000	      1.09164153	     -1.09129807	      7.25333993	     -0.01403953	      1.01003117	     -0.89298934	      9.40174119	      8.42883650	    -19.91926669	    -18.92966848	     11.10230780	     -5.23304432	     11.34959343	    -11.48277771	     -5.32918224	    -57.97705610	      2.44758323	     12.06279482	     -4.93169390	      1.26532507	     -2.95414921
      4.08000000	      1.13936361	     -1.14296651	      6.14522368	     -0.00565831	      1.01071899	     -0.88960908	      8.39002743	      8.92145577	    -18.96240598	    -18.16139253	     11.22284286	     -4.88897324	     12.27432567	    -11.55856947	     -5.28768840	    -57.18437387	      3.21720359	     11.69925426	     -4.94951626	      1.17615589	     -2.42188695
      4.09000000	      1.17472840	     -1.20375700	      5.04271593	      0.00262874	      1.01127290	     -0.88623355	      7.39101157	      9.38231697	    -18.01974971	    -17.40936073	     11.34894458	     -4.52546456	     13.15843600	    -11.64285482	     -5.25875692	    -56.21472473	      3.94778306	     11.31994738	     -4.94945846	      1.10661220	     -1.91469283
      4.10000000	      1.20812980	     -1.26644903	      3.95585220	      0.01077172	      1.01170242	     -0.88291224	      6.41144543	      9.80165907	    -17.07680429	    -16.70191513	     11.48394985	     -4.12815674	     13.99396065	    -11.70367027	     -5.19657261	    -55.07763069	      4.62989324	     10.90220999	     -4.95831618	      1.05387890	     -1.42247903
      4.11000000	      1.20318616	     -1.34238437	      2.86256346	      0.01883367	      1.01194586	     -0.87958244	      5.48329794	     10.19820127	    -16.13127530	    -16.02747677	     11.62547888	     -3.80483802	     14.81125815	    -11.77949576	     -5.17000167	    -53.78277102	      5.24650131	     10.55273674	     -4.92473939	      1.02557148	     -0.94900860
      4.12000000	      1.16186348	     -1.42137898	      1.78183689	      0.02676825	      1.01198661	     -0.87631650	      4.62979280	     10.55434133	    -15.20851762	    -15.43019970	     11.78373804	     -3.56094439	     15.61449940	    -11.83826726	     -5.13458999	    -52.34900874	      5.87268144	     10.27323442	     -4.86264653	      1.01590689	     -0.48568751
      4.13000000	      1.12748422	     -1.49168380	      0.69858740	      0.03463217	      1.01192978	     -0.87310247	      3.78343607	     10.86668504	    -14.27905232	    -14.87815411	     11.96140103	     -3.29205858	     16.34123034	    -11.87107175	     -5.11529477	    -50.76761454	      6.36861073	      9.98515353	     -4.81796761	      1.01747651	     -0.04545765
      4.14000000	      1.12159370	     -1.53968597	     -0.36400117	      0.04243825	      1.01181457	     -0.86999015	      2.92380491	     11.11697680	    -13.37464257	    -14.37262345	     12.18072463	     -2.96334835	     16.96988814	    -11.85439404	     -5.10195917	    -49.04505942	      6.73676874	      9.67952360	     -4.81698611	      1.01510407	      0.34648768
      4.15000000	      1.06207614	     -1.59567123	     -1.42630405	      0.05015136	      1.01147811	     -0.86693321	      2.16653257	     11.33936121	    -12.49240020	    -13.96011899	     12.41636963	     -2.75207802	     17.60563482	    -11.83119620	     -5.10337887	    -47.23139093	      7.09027013	      9.55781679	     -4.76646230	      1.03814959	      0.73975074
      4.16000000	      1.01293329	     -1.63856487	     -2.47342400	      0.05780674	      1.01105765	     -0.86396281	      1.43016743	     11.51320216	    -11.63230869	    -13.61928923	     12.67604252	     -2.54605822	     18.17172258	    -11.76777800	     -5.10804832	    -45.31779528	      7.36916210	      9.55550888	     -4.73937394	      1.06345738	      1.10972508
